<?xml version="1.0" standalone="no"?>
<!DOCTYPE svg PUBLIC "-//W3C//DTD SVG 20010904//EN"
 "http://www.w3.org/TR/2001/REC-SVG-20010904/DTD/svg10.dtd">
<svg version="1.0" xmlns="http://www.w3.org/2000/svg"
 width="677.000000pt" height="1280.000000pt" viewBox="0 0 677.000000 1280.000000"
 preserveAspectRatio="xMidYMid meet">
<metadata>
Created by potrace 1.15, written by Peter Selinger 2001-2017
</metadata>
<g transform="translate(0.000000,1280.000000) scale(0.100000,-0.100000)"
fill="#000000" stroke="none">
<path d="M2525 12789 c-1329 -25 -2327 -112 -2474 -215 -51 -36 -50 -31 -41
-715 5 -349 14 -983 20 -1409 6 -426 15 -1099 20 -1495 5 -396 14 -1055 20
-1465 6 -410 15 -1073 20 -1475 6 -401 14 -1056 20 -1455 5 -399 14 -1074 20
-1500 6 -426 15 -1046 19 -1377 5 -382 12 -607 18 -615 6 -7 13 -30 16 -50 14
-91 89 -198 202 -287 327 -260 988 -459 1860 -561 408 -47 564 -54 1145 -54
580 0 735 7 1141 54 796 93 1437 274 1784 504 151 101 268 250 282 358 3 24 9
48 13 53 5 6 13 356 19 780 10 722 16 1114 41 3065 6 426 15 1115 20 1530 41
3113 49 3766 60 4585 5 429 12 934 16 1121 7 382 6 387 -60 418 -314 149
-2217 243 -4181 205z m1485 -99 c1053 -16 1793 -55 2287 -120 139 -18 333 -56
333 -65 0 -24 -381 -80 -730 -109 -1531 -127 -4243 -107 -5410 40 -127 16
-304 50 -328 63 -43 24 315 80 743 115 571 48 1159 69 2375 84 63 1 392 -3
730 -8z m-3759 -318 c440 -95 1743 -162 3144 -162 1472 0 2801 73 3196 175 31
8 61 15 65 15 5 0 6 -243 2 -542 -7 -558 -30 -2357 -48 -3683 -14 -1017 -28
-2101 -40 -3050 -6 -434 -15 -1105 -20 -1490 -5 -385 -13 -965 -16 -1289 l-7
-588 -26 -25 c-58 -54 -206 -133 -407 -216 -145 -61 -475 -153 -719 -201 -498
-98 -945 -142 -1583 -155 -867 -18 -1566 21 -2143 119 -652 111 -1191 305
-1362 489 l-38 41 -9 633 c-5 347 -14 981 -20 1407 -6 426 -15 1101 -20 1500
-6 399 -15 1058 -20 1465 -6 407 -15 1066 -20 1465 -5 399 -14 1065 -20 1480
-6 415 -15 1068 -20 1450 -9 639 -14 1175 -11 1192 1 4 11 4 24 -1 13 -5 66
-18 118 -29z m144 -11497 c128 -128 289 -224 545 -324 275 -107 590 -189 1005
-260 61 -10 99 -19 85 -20 -63 -2 -491 79 -710 136 -459 118 -788 268 -955
437 -66 66 -115 152 -115 200 1 29 3 26 32 -29 19 -35 65 -93 113 -140z m6043
-6 c-19 -31 -149 -133 -231 -181 -157 -92 -415 -192 -679 -263 -181 -49 -183
-42 -3 10 429 124 746 275 884 419 40 41 46 45 29 15z m-1071 -485 c-3 -3 -12
-4 -19 -1 -8 3 -5 6 6 6 11 1 17 -2 13 -5z m-44 -11 c-7 -2 -19 -2 -25 0 -7 3
-2 5 12 5 14 0 19 -2 13 -5z m-3220 -110 c-7 -2 -21 -2 -30 0 -10 3 -4 5 12 5
17 0 24 -2 18 -5z m75 -10 c-10 -2 -26 -2 -35 0 -10 3 -2 5 17 5 19 0 27 -2
18 -5z m1750 -60 c-27 -2 -69 -2 -95 0 -27 2 -5 3 47 3 52 0 74 -1 48 -3z
m-290 -10 c-82 -2 -214 -2 -295 0 -82 1 -15 3 147 3 162 0 229 -2 148 -3z"/>
</g>
</svg>
