<?xml version="1.0" encoding="UTF-8"?>
<svg viewBox="0 0 195 367.7" xmlns="http://www.w3.org/2000/svg">
 <defs>
  <filter id="i" x="-.008135" y="-.15456" width="1.0163" height="1.3091">
   <feGaussianBlur stdDeviation="0.65052"/>
  </filter>
  <filter id="j" x="-.028462" y="-.15308" width="1.0569" height="1.3062">
   <feGaussianBlur stdDeviation="2.143056"/>
  </filter>
  <filter id="h" x="-.021159" y="-.12057" width="1.0423" height="1.2411">
   <feGaussianBlur stdDeviation="1.623281"/>
  </filter>
  <filter id="a">
   <feGaussianBlur stdDeviation="0.272631"/>
  </filter>
  <linearGradient id="k" x1=".879" x2=".85582" y1=".033757" y2=".67891">
   <stop stop-color="#fff" offset="0"/>
   <stop stop-color="#fff" stop-opacity="0" offset="1"/>
  </linearGradient>
  <linearGradient id="l" x1="1.4394" x2=".000653" y1=".49279" y2=".49279">
   <stop stop-color="#fff" offset="0"/>
   <stop stop-color="#d4d4d4" stop-opacity=".278" offset="1"/>
  </linearGradient>
  <radialGradient id="m" cx="159.04" cy="469.76" r="92.062" gradientTransform="matrix(1.2761 .032784 -.0076807 .29896 -40.299 248.42)" gradientUnits="userSpaceOnUse">
   <stop stop-color="#a4a0d6" stop-opacity=".744" offset="0"/>
   <stop stop-opacity="0" offset="1"/>
  </radialGradient>
 </defs>
 <path d="m7.6688 329.03c-0.57098 0.10998-0.47772 1.987-0.45868 2.935 0 6.056 0.27704 4.23 1.6152 6.388 1.3381 2.158 3.2034 4.056 5.5511 5.888 4.6955 3.663 11.34 6.893 19.528 9.595 16.376 5.403 38.891 8.723 63.772 8.723s47.397-3.32 63.772-8.723c8.188-2.702 14.833-5.932 19.529-9.595 2.347-1.832 4.213-3.73 5.551-5.888s1.319-2.448 1.196-7.266c0.039993-1.04 0.45999-2.128-0.17201-2.128-4.01 12.482-15.23 17.078-26.566 21.115-16.153 5.33-38.554 8.668-63.31 8.668s-47.156-3.338-63.31-8.668c-8.0766-2.665-14.599-5.835-19-9.268-4.7639-2.708-5.7098-7.635-7.6989-11.776z" filter="url(#j)" opacity=".602" stroke-width="2.192"/>
 <path d="m1.5993 8.1861l4.4885 308.31" fill="none" stroke="#000" stroke-width=".485"/>
 <path d="m1.6068 8.1936l4.4735 328.8" fill="#0ff" opacity=".704" stroke="#999" stroke-width="3"/>
 <path d="m97.58 15.346c-52.902 0-95.812-3.1251-95.812-7 0-0.43964 0.60022-0.89529 1.6562-1.3125-0.4126 0.26435-0.65625 0.54003-0.65625 0.8125 0 3.8749 42.895 7.1562 95.797 7.1562 46.9 0 85.889-2.6148 94.141-5.875-5.456 3.4954-45.943 6.2188-95.125 6.2188z"/>
 <g stroke-linecap="round" stroke-linejoin="round">
  <path d="m98.13 0.4927c52.901 0 95.812 3.1251 95.812 7 0 0.43963-0.60001 0.89528-1.656 1.3125 0.41301-0.26436 0.65601-0.54006 0.65601-0.8125 0-3.8749-42.895-7.1562-95.797-7.1562-46.9 0-85.889 2.6148-94.141 5.875 5.4556-3.4954 45.943-6.2188 95.125-6.2188z" stroke="#fff" stroke-width=".25"/>
  <g fill="none">
   <path d="m193.36 8.1936c0 3.8749-42.885 7.0161-95.787 7.0161s-95.787-3.1412-95.787-7.0161 42.885-7.0161 95.787-7.0161 95.787 3.1412 95.787 7.0161z" opacity=".773" stroke="#999" stroke-width="3"/>
   <path d="m189.06 336.49c0 14.993-40.961 27.147-91.49 27.147s-91.491-12.154-91.491-27.147" stroke="#e6e6e6" stroke-width="2"/>
  </g>
 </g>
 <path d="m193.46 162.14c0 6.053-42.513 10.96-94.955 10.96s-94.955-4.907-94.955-10.96c0-6.054 42.513-10.961 94.955-10.961s94.955 4.907 94.955 10.961z" fill="#85ffff" stroke-width="1.358"/>
 <g fill="none">
  <g stroke="#000">
   <path d="m189.46 160.64c0 6.053-42.513 10.96-94.955 10.96s-94.955-4.907-94.955-10.96c0-6.054 42.513-10.961 94.955-10.961s94.955 4.907 94.955 10.961z" filter="url(#i)" opacity=".123" stroke-linecap="round" stroke-linejoin="round" stroke-width="1.365"/>
   <path d="m193.37 8.1864l-4.318 308.53" stroke-width=".486"/>
  </g>
  <path d="m193.36 8.1936l-4.303 328.3" opacity=".843" stroke="#999" stroke-width="3"/>
 </g>
 <g stroke-width="2">
  <path d="m97.585 304.02c-50.842 0-92.062 4.927-92.062 11.031h0.3125c1.1882 11.791 41.814 21.281 91.75 21.281s90.531-9.49 91.719-21.281h0.34399c0-6.104-41.22-11.031-92.063-11.031z" fill="url(#m)" filter="url(#h)"/>
  <g fill="#d40000">
   <path d="m190.06 78.269c0.78-0.7001 1.145-1.438 1.624-2.1656v2.3423c-0.62299-0.626-1.115-0.3429-1.624-0.1767z" opacity=".102"/>
   <path d="m4.4622 78.523c-0.7804-0.7001-1.1454-1.438-1.6242-2.1655v2.3422c0.62244-0.626 1.1149-0.3428 1.6242-0.1767z" opacity=".208"/>
  </g>
  <path d="m78.332 334.49c-37.303-1.346-66.92-6.45-71.076-12.402-1.4148-2.026-0.76571-10.711-2.1405-79.573-0.8495-42.548-1.3316-79.25-1.0714-79.424 0.26028-0.174 2.079 2.08 4.1056 2.796 9.1644 3.237 42.992 5.062 89.373 4.749 47.635-0.32201 80.372-1.867 88.881-4.749 2.044-0.69301 3.828-3.047 4.066-2.887 0.23799 0.159-0.243 37.072-1.069 79.814-1.362 70.545-0.056 77.309-1.543 79.08-6.742 8.025-60.157 14.377-109.53 12.596z" fill="#00eded" fill-opacity=".684"/>
  <g transform="matrix(1.1864 0 0 1.1864 -101.07 -23.077)">
   <path d="m120.33 210.95c0 3.59-2.911 6.5-6.5 6.5-3.59 0-6.5-2.91-6.5-6.5 0-3.589 2.91-6.5 6.5-6.5 3.589 0 6.5 2.911 6.5 6.5z" fill="#0ff" opacity=".644"/>
   <path d="m117.15 206.5c1.09 2.156-2.997 1.541-5.153 2.632-2.157 1.09-2.69 5.316-3.781 3.16-1.09-2.156 0.212-5.82 2.368-6.91s5.476-1.039 6.566 1.118z" fill="#fff" filter="url(#a)" opacity=".644"/>
  </g>
  <g transform="matrix(.77049 0 0 .77049 185.13 21.128)" opacity=".912">
   <path d="m-126.79 203.73c0 3.59-2.91 6.5-6.5 6.5-3.589 0-6.5-2.91-6.5-6.5s2.911-6.5 6.5-6.5c3.59 0 6.5 2.91 6.5 6.5z" fill="#0ff" opacity=".644"/>
   <path d="m-129.96 199.28c1.09 2.156-2.997 1.542-5.153 2.632-2.157 1.09-2.69 5.316-3.781 3.16-1.09-2.156 0.21201-5.819 2.368-6.909 2.156-1.091 5.476-1.039 6.566 1.117z" fill="#fff" filter="url(#a)" opacity=".644"/>
  </g>
  <g transform="matrix(.69595 0 0 .69595 202.06 13.759)" opacity=".796">
   <path d="m-209.22 266.29c0 3.59-2.91 6.5-6.5 6.5s-6.5-2.91-6.5-6.5 2.91-6.5 6.5-6.5 6.5 2.91 6.5 6.5z" fill="#0ff" opacity=".644"/>
   <path d="m-212.39 261.84c1.091 2.156-2.997 1.542-5.153 2.632s-2.69 5.317-3.78 3.16c-1.09-2.156 0.211-5.819 2.367-6.909 2.157-1.091 5.476-1.039 6.566 1.117z" fill="#fff" filter="url(#a)" opacity=".644"/>
  </g>
  <g transform="matrix(1.1864 0 0 1.1864 6.1403 -58.543)" opacity=".519">
   <path d="m120.33 196.62c0 3.59-2.911 6.5-6.5 6.5-3.59 0-6.5-2.91-6.5-6.5 0-3.589 2.91-6.5 6.5-6.5 3.589 0 6.5 2.911 6.5 6.5z" fill="#0ff" opacity=".644"/>
   <path d="m117.15 192.18c1.09 2.156-2.997 1.541-5.153 2.632-2.157 1.09-2.69 5.316-3.781 3.16-1.09-2.156 0.212-5.82 2.368-6.91s5.476-1.039 6.566 1.118z" fill="#fff" filter="url(#a)" opacity=".644"/>
  </g>
  <g transform="matrix(.3122 0 0 .3122 426.41 269.58)">
   <path d="m-1154.9 159.42c0 3.59-2.91 6.5-6.5 6.5s-6.5-2.91-6.5-6.5c0-3.589 2.91-6.5 6.5-6.5s6.5 2.911 6.5 6.5z" fill="#0ff" opacity=".644"/>
   <path d="m-1158 154.98c1.0901 2.156-2.99 1.541-5.1499 2.632-2.16 1.09-2.6901 5.316-3.78 3.16-1.0901-2.156 0.20996-5.82 2.37-6.91 2.15-1.09 5.47-1.039 6.5599 1.118z" fill="#fff" filter="url(#a)" opacity=".644"/>
  </g>
  <path d="m78.952 362.25c-38.069-3.264-64.452-12.041-70.647-23.505-1.2867-2.381-1.3451-2.852-1.5859-12.812-0.25037-10.355-0.08212-11.462 1.439-9.475 3.2699 4.273 15.343 9.316 30.059 12.556 16.92 3.725 35.653 5.41 60.144 5.41 22.902 0 38.528-1.243 55.202-4.393 15.572-2.941 29.205-8.041 34.195-12.791 0.95201-0.90601 1.884-1.648 2.07-1.648 0.187 0 0.187 4.612-0.001007 10.25-0.388 11.678-0.61499 12.55-4.302 16.486-7.891 8.423-29.54 15.572-57.421 18.963-6.971 0.84799-42.388 1.539-49.152 0.95902z" fill="#b2b2b2" opacity=".59"/>
  <path d="m181.38 172.58l-69.762 2.572c-4.297 10.539 32.318 166.27-52.874 155.56 153.03 25.442 115.06-70.319 122.64-158.13z" fill="url(#k)" opacity=".569"/>
  <path d="m186.3 321.86v17.25c-29.453 25.817-113.01 23.613-154.25 14.5 89.316 12.916 140.22-17.301 154.25-31.75z" fill="url(#l)"/>
 </g>
 <path d="m7.6688 329.03c-0.57098 0.10998-0.47772 1.987-0.45868 2.935 0 6.056 0.27704 4.23 1.6152 6.388 1.3381 2.158 3.2034 4.056 5.5511 5.888 4.6955 3.663 11.34 6.893 19.528 9.595 16.376 5.403 38.891 8.723 63.772 8.723s47.397-3.32 63.772-8.723c8.188-2.702 14.833-5.932 19.529-9.595 2.347-1.832 4.213-3.73 5.551-5.888s1.319-2.448 1.196-7.266c0.039993-1.04 0.45999-2.128-0.17201-2.128-4.01 12.482-15.23 17.078-26.566 21.115-16.153 5.33-38.554 8.668-63.31 8.668s-47.156-3.338-63.31-8.668c-8.0766-2.665-14.599-5.835-19-9.268-4.7639-2.708-5.7098-7.635-7.6989-11.776z" filter="url(#j)" opacity=".602" stroke-width="2.192"/>
 <path d="m1.5993 8.1861l4.4885 308.31" fill="none" stroke="#000" stroke-width=".485"/>
 <path d="m1.6068 8.1936l4.4735 328.8" fill="#0ff" opacity=".704" stroke="#999" stroke-width="3"/>
 <path d="m97.58 15.346c-52.902 0-95.812-3.1251-95.812-7 0-0.43964 0.60022-0.89529 1.6562-1.3125-0.4126 0.26435-0.65625 0.54003-0.65625 0.8125 0 3.8749 42.895 7.1562 95.797 7.1562 46.9 0 85.889-2.6148 94.141-5.875-5.456 3.4954-45.943 6.2188-95.125 6.2188z"/>
 <g stroke-linecap="round" stroke-linejoin="round">
  <path d="m98.13 0.4927c52.901 0 95.812 3.1251 95.812 7 0 0.43963-0.60001 0.89528-1.656 1.3125 0.41301-0.26436 0.65601-0.54006 0.65601-0.8125 0-3.8749-42.895-7.1562-95.797-7.1562-46.9 0-85.889 2.6148-94.141 5.875 5.4556-3.4954 45.943-6.2188 95.125-6.2188z" stroke="#fff" stroke-width=".25"/>
  <g fill="none">
   <path d="m193.36 8.1936c0 3.8749-42.885 7.0161-95.787 7.0161s-95.787-3.1412-95.787-7.0161 42.885-7.0161 95.787-7.0161 95.787 3.1412 95.787 7.0161z" opacity=".773" stroke="#999" stroke-width="3"/>
   <path d="m189.06 336.49c0 14.993-40.961 27.147-91.49 27.147s-91.491-12.154-91.491-27.147" stroke="#e6e6e6" stroke-width="2"/>
  </g>
 </g>
 <path d="m193.46 162.14c0 6.053-42.513 10.96-94.955 10.96s-94.955-4.907-94.955-10.96c0-6.054 42.513-10.961 94.955-10.961s94.955 4.907 94.955 10.961z" fill="#85ffff" stroke-width="1.358"/>
 <g fill="none">
  <g stroke="#000">
   <path d="m189.46 160.64c0 6.053-42.513 10.96-94.955 10.96s-94.955-4.907-94.955-10.96c0-6.054 42.513-10.961 94.955-10.961s94.955 4.907 94.955 10.961z" filter="url(#i)" opacity=".123" stroke-linecap="round" stroke-linejoin="round" stroke-width="1.365"/>
   <path d="m193.37 8.1864l-4.318 308.53" stroke-width=".486"/>
  </g>
  <path d="m193.36 8.1936l-4.303 328.3" opacity=".843" stroke="#999" stroke-width="3"/>
 </g>
 <g stroke-width="2">
  <path d="m97.585 304.02c-50.842 0-92.062 4.927-92.062 11.031h0.3125c1.1882 11.791 41.814 21.281 91.75 21.281s90.531-9.49 91.719-21.281h0.34399c0-6.104-41.22-11.031-92.063-11.031z" fill="url(#m)" filter="url(#h)"/>
  <g fill="#d40000">
   <path d="m190.06 78.269c0.78-0.7001 1.145-1.438 1.624-2.1656v2.3423c-0.62299-0.626-1.115-0.3429-1.624-0.1767z" opacity=".102"/>
   <path d="m4.4622 78.523c-0.7804-0.7001-1.1454-1.438-1.6242-2.1655v2.3422c0.62244-0.626 1.1149-0.3428 1.6242-0.1767z" opacity=".208"/>
  </g>
  <path d="m78.332 334.49c-37.303-1.346-66.92-6.45-71.076-12.402-1.4148-2.026-0.76571-10.711-2.1405-79.573-0.8495-42.548-1.3316-79.25-1.0714-79.424 0.26028-0.174 2.079 2.08 4.1056 2.796 9.1644 3.237 42.992 5.062 89.373 4.749 47.635-0.32201 80.372-1.867 88.881-4.749 2.044-0.69301 3.828-3.047 4.066-2.887 0.23799 0.159-0.243 37.072-1.069 79.814-1.362 70.545-0.056 77.309-1.543 79.08-6.742 8.025-60.157 14.377-109.53 12.596z" fill="#00eded" fill-opacity=".684"/>
  <g transform="matrix(1.1864 0 0 1.1864 -101.07 -23.077)">
   <path d="m120.33 210.95c0 3.59-2.911 6.5-6.5 6.5-3.59 0-6.5-2.91-6.5-6.5 0-3.589 2.91-6.5 6.5-6.5 3.589 0 6.5 2.911 6.5 6.5z" fill="#0ff" opacity=".644"/>
   <path d="m117.15 206.5c1.09 2.156-2.997 1.541-5.153 2.632-2.157 1.09-2.69 5.316-3.781 3.16-1.09-2.156 0.212-5.82 2.368-6.91s5.476-1.039 6.566 1.118z" fill="#fff" filter="url(#a)" opacity=".644"/>
  </g>
  <g transform="matrix(.77049 0 0 .77049 185.13 21.128)" opacity=".912">
   <path d="m-126.79 203.73c0 3.59-2.91 6.5-6.5 6.5-3.589 0-6.5-2.91-6.5-6.5s2.911-6.5 6.5-6.5c3.59 0 6.5 2.91 6.5 6.5z" fill="#0ff" opacity=".644"/>
   <path d="m-129.96 199.28c1.09 2.156-2.997 1.542-5.153 2.632-2.157 1.09-2.69 5.316-3.781 3.16-1.09-2.156 0.21201-5.819 2.368-6.909 2.156-1.091 5.476-1.039 6.566 1.117z" fill="#fff" filter="url(#a)" opacity=".644"/>
  </g>
  <g transform="matrix(.69595 0 0 .69595 202.06 13.759)" opacity=".796">
   <path d="m-209.22 266.29c0 3.59-2.91 6.5-6.5 6.5s-6.5-2.91-6.5-6.5 2.91-6.5 6.5-6.5 6.5 2.91 6.5 6.5z" fill="#0ff" opacity=".644"/>
   <path d="m-212.39 261.84c1.091 2.156-2.997 1.542-5.153 2.632s-2.69 5.317-3.78 3.16c-1.09-2.156 0.211-5.819 2.367-6.909 2.157-1.091 5.476-1.039 6.566 1.117z" fill="#fff" filter="url(#a)" opacity=".644"/>
  </g>
  <g transform="matrix(1.1864 0 0 1.1864 6.1403 -58.543)" opacity=".519">
   <path d="m120.33 196.62c0 3.59-2.911 6.5-6.5 6.5-3.59 0-6.5-2.91-6.5-6.5 0-3.589 2.91-6.5 6.5-6.5 3.589 0 6.5 2.911 6.5 6.5z" fill="#0ff" opacity=".644"/>
   <path d="m117.15 192.18c1.09 2.156-2.997 1.541-5.153 2.632-2.157 1.09-2.69 5.316-3.781 3.16-1.09-2.156 0.212-5.82 2.368-6.91s5.476-1.039 6.566 1.118z" fill="#fff" filter="url(#a)" opacity=".644"/>
  </g>
  <g transform="matrix(.3122 0 0 .3122 426.41 269.58)">
   <path d="m-1154.9 159.42c0 3.59-2.91 6.5-6.5 6.5s-6.5-2.91-6.5-6.5c0-3.589 2.91-6.5 6.5-6.5s6.5 2.911 6.5 6.5z" fill="#0ff" opacity=".644"/>
   <path d="m-1158 154.98c1.0901 2.156-2.99 1.541-5.1499 2.632-2.16 1.09-2.6901 5.316-3.78 3.16-1.0901-2.156 0.20996-5.82 2.37-6.91 2.15-1.09 5.47-1.039 6.5599 1.118z" fill="#fff" filter="url(#a)" opacity=".644"/>
  </g>
  <path d="m78.952 362.25c-38.069-3.264-64.452-12.041-70.647-23.505-1.2867-2.381-1.3451-2.852-1.5859-12.812-0.25037-10.355-0.08212-11.462 1.439-9.475 3.2699 4.273 15.343 9.316 30.059 12.556 16.92 3.725 35.653 5.41 60.144 5.41 22.902 0 38.528-1.243 55.202-4.393 15.572-2.941 29.205-8.041 34.195-12.791 0.95201-0.90601 1.884-1.648 2.07-1.648 0.187 0 0.187 4.612-0.001007 10.25-0.388 11.678-0.61499 12.55-4.302 16.486-7.891 8.423-29.54 15.572-57.421 18.963-6.971 0.84799-42.388 1.539-49.152 0.95902z" fill="#b2b2b2" opacity=".59"/>
  <path d="m181.38 172.58l-69.762 2.572c-4.297 10.539 32.318 166.27-52.874 155.56 153.03 25.442 115.06-70.319 122.64-158.13z" fill="url(#k)" opacity=".569"/>
  <path d="m186.3 321.86v17.25c-29.453 25.817-113.01 23.613-154.25 14.5 89.316 12.916 140.22-17.301 154.25-31.75z" fill="url(#l)"/>
 </g>
</svg>
